<svg width="100" height="100" viewBox="0 0 100 100" fill="none" xmlns="http://www.w3.org/2000/svg">
<circle cx="50" cy="50" r="50" fill="#15141B"/>
<path d="M16.168 68V34.4H27.928L33.736 63.68H34.6L40.408 34.4H52.168V68H46.024V39.056H45.16L39.4 68H28.936L23.176 39.056H22.312V68H16.168Z" fill="#A277FF"/>
<path d="M70.1601 68.672C67.5681 68.672 65.2801 68.208 63.2961 67.28C61.3121 66.352 59.7601 65.024 58.6401 63.296C57.5201 61.568 56.9601 59.488 56.9601 57.056V55.712H63.2001V57.056C63.2001 59.072 63.8241 60.592 65.0721 61.616C66.3201 62.608 68.0161 63.104 70.1601 63.104C72.3361 63.104 73.9521 62.672 75.0081 61.808C76.0961 60.944 76.6401 59.84 76.6401 58.496C76.6401 57.568 76.3681 56.816 75.8241 56.24C75.3121 55.664 74.5441 55.2 73.5201 54.848C72.5281 54.464 71.3121 54.112 69.8721 53.792L68.7681 53.552C66.4641 53.04 64.4801 52.4 62.8161 51.632C61.1841 50.832 59.9201 49.792 59.0241 48.512C58.1601 47.232 57.7281 45.568 57.7281 43.52C57.7281 41.472 58.2081 39.728 59.1681 38.288C60.1601 36.816 61.5361 35.696 63.2961 34.928C65.0881 34.128 67.1841 33.728 69.5841 33.728C71.9841 33.728 74.1121 34.144 75.9681 34.976C77.8561 35.776 79.3281 36.992 80.3841 38.624C81.4721 40.224 82.0161 42.24 82.0161 44.672V46.112H75.7761V44.672C75.7761 43.392 75.5201 42.368 75.0081 41.6C74.5281 40.8 73.8241 40.224 72.8961 39.872C71.9681 39.488 70.8641 39.296 69.5841 39.296C67.6641 39.296 66.2401 39.664 65.3121 40.4C64.4161 41.104 63.9681 42.08 63.9681 43.328C63.9681 44.16 64.1761 44.864 64.5921 45.44C65.0401 46.016 65.6961 46.496 66.5601 46.88C67.4241 47.264 68.5281 47.6 69.8721 47.888L70.9761 48.128C73.3761 48.64 75.4561 49.296 77.2161 50.096C79.0081 50.896 80.4001 51.952 81.3921 53.264C82.3841 54.576 82.8801 56.256 82.8801 58.304C82.8801 60.352 82.3521 62.16 81.2961 63.728C80.2721 65.264 78.8001 66.48 76.8801 67.376C74.9921 68.24 72.7521 68.672 70.1601 68.672Z" fill="#61FFCA"/>
</svg>
