<svg width="256" height="256" viewBox="0 0 256 256" fill="none" xmlns="http://www.w3.org/2000/svg">
<path d="M235.856 68.992L155.856 24.992C154.675 24.3421 153.348 24.0013 152 24.0013C150.652 24.0013 149.325 24.3421 148.144 24.992L68.144 68.992C66.8897 69.6826 65.8437 70.6972 65.1152 71.9298C64.3867 73.1625 64.0024 74.5681 64.0024 76C64.0024 77.4318 64.3867 78.8374 65.1152 80.0701C65.8437 81.3028 66.8897 82.3174 68.144 83.008L144 124.728V210.48L119.712 197.12L112 211.128L148.144 231.008C149.325 231.659 150.651 232.001 152 232.001C153.349 232.001 154.675 231.659 155.856 231.008L235.856 187.008C237.111 186.318 238.157 185.303 238.886 184.071C239.615 182.838 240 181.432 240 180V76C240 74.5679 239.615 73.1621 238.886 71.9294C238.157 70.6967 237.111 69.6822 235.856 68.992ZM152 41.136L215.4 76L152 110.864L88.6 76L152 41.136ZM224 175.272L160 210.472V124.72L224 89.52V175.272Z" fill="url(#paint0_linear_34_66)"/>
<path d="M80 128H16V112H80V128ZM96 192H32V176H96V192ZM112 160H48V144H112V160Z" fill="url(#paint1_linear_34_66)"/>
<defs>
<linearGradient id="paint0_linear_34_66" x1="227.429" y1="42.9104" x2="55.379" y2="189.618" gradientUnits="userSpaceOnUse">
<stop stop-color="#BE3D55"/>
<stop offset="1" stop-color="#94192F"/>
</linearGradient>
<linearGradient id="paint1_linear_34_66" x1="105.143" y1="119.273" x2="39.3201" y2="198.872" gradientUnits="userSpaceOnUse">
<stop stop-color="#BE3D55"/>
<stop offset="1" stop-color="#94192F"/>
</linearGradient>
</defs>
</svg>
