<svg width="128" height="128" viewBox="0 0 128 128" fill="none" xmlns="http://www.w3.org/2000/svg">
<path fill-rule="evenodd" clip-rule="evenodd" d="M46.2242 50.2241C44.4151 50.2241 42.6237 50.5804 40.9523 51.2727C39.2809 51.965 37.7623 52.9798 36.4831 54.259C35.2039 55.5382 34.1891 57.0569 33.4968 58.7282C32.8045 60.3996 32.4482 62.191 32.4482 64.0001C32.4482 65.8092 32.8045 67.6005 33.4968 69.2719C34.1891 70.9433 35.2039 72.462 36.4831 73.7412C37.7623 75.0204 39.2809 76.0351 40.9523 76.7274C42.6237 77.4198 44.4151 77.7761 46.2242 77.7761H60.0002V64.2774C59.998 64.0925 59.998 63.9076 60.0002 63.7227V50.2241H46.2242ZM60.0002 42.2241H46.2242C42.5698 42.2241 39.0652 40.7724 36.4812 38.1884C33.8972 35.6044 32.4455 32.0997 32.4455 28.4454C32.4455 24.7911 33.8972 21.2864 36.4812 18.7024C39.0652 16.1184 42.5698 14.6667 46.2242 14.6667H60.0002V42.2241ZM68.0002 14.6667V42.2241H81.7762C85.3836 42.1531 88.8192 40.6702 91.3453 38.094C93.8714 35.5177 95.2864 32.0535 95.2864 28.4454C95.2864 24.8373 93.8714 21.3731 91.3453 18.7969C88.8192 16.2206 85.3836 14.7377 81.7762 14.6667H68.0002ZM81.7762 50.2187C78.1601 50.2183 74.6889 51.6396 72.1116 54.176C69.5343 56.7124 68.0576 60.1605 68.0002 63.7761V64.2187C68.0443 66.9334 68.8896 69.5745 70.43 71.8103C71.9703 74.0461 74.1369 75.7769 76.6577 76.7853C79.1785 77.7937 81.9411 78.0347 84.5984 77.4782C87.2558 76.9216 89.6894 75.5922 91.5937 73.657C93.498 71.7217 94.7879 69.267 95.3016 66.601C95.8152 63.935 95.5296 61.1767 94.4807 58.6725C93.4318 56.1683 91.6663 54.0298 89.4059 52.5258C87.1456 51.0217 84.4912 50.2191 81.7762 50.2187ZM46.2242 85.7761C43.4983 85.775 40.8333 86.5824 38.5662 88.0961C36.2992 89.6097 34.532 91.7617 33.4881 94.2798C32.4442 96.7979 32.1705 99.5691 32.7017 102.243C33.2328 104.916 34.5449 107.373 36.4721 109.3C38.3992 111.228 40.8548 112.541 43.5283 113.074C46.2017 113.606 48.973 113.333 51.4915 112.29C54.01 111.247 56.1627 109.481 57.6772 107.214C59.1918 104.948 60.0002 102.283 60.0002 99.5574V85.7761H46.2242Z" fill="url(#paint0_linear_79_112)"/>
<defs>
<linearGradient id="paint0_linear_79_112" x1="91.0423" y1="23.6369" x2="15.7625" y2="72.1608" gradientUnits="userSpaceOnUse">
<stop stop-color="#BE3D55"/>
<stop offset="1" stop-color="#94192F"/>
</linearGradient>
</defs>
</svg>
