<svg width="100" height="102" viewBox="0 0 100 102" fill="none" xmlns="http://www.w3.org/2000/svg">
<g filter="url(#filter0_d_83_137)">
<path d="M6.25 6.25V93.75H93.75V6.25H6.25ZM53.8688 74.4906C53.8688 83.0062 48.8688 86.8937 41.5844 86.8937C35.0031 86.8937 31.1938 83.4969 29.2406 79.375L35.9406 75.3313C37.2313 77.6156 38.4031 79.55 41.2344 79.55C43.9281 79.55 45.6469 78.4937 45.6469 74.375V46.425H53.8688V74.4906ZM73.3187 86.8937C65.6812 86.8937 60.7406 83.2625 58.3375 78.4938L65.0375 74.6281C66.7969 77.5 69.1 79.6281 73.1438 79.6281C76.5406 79.6281 78.7313 77.9281 78.7313 75.5656C78.7313 72.7531 76.5031 71.7562 72.7344 70.0969L70.6844 69.2187C64.7469 66.7 60.8219 63.5156 60.8219 56.8156C60.8219 50.6437 65.5281 45.9563 72.8531 45.9563C78.0875 45.9563 81.8375 47.7719 84.5344 52.5375L78.1281 56.6406C76.7219 54.1219 75.1969 53.125 72.8344 53.125C70.4344 53.125 68.9094 54.65 68.9094 56.6406C68.9094 59.1031 70.4344 60.0969 73.9688 61.6406L76.0188 62.5188C83.0125 65.5063 86.9375 68.575 86.9375 75.4469C86.9375 82.8312 81.1156 86.8906 73.3219 86.8906L73.3187 86.8937Z" fill="url(#paint0_linear_83_137)"/>
</g>
<defs>
<filter id="filter0_d_83_137" x="-4" y="0" width="108" height="108" filterUnits="userSpaceOnUse" color-interpolation-filters="sRGB">
<feFlood flood-opacity="0" result="BackgroundImageFix"/>
<feColorMatrix in="SourceAlpha" type="matrix" values="0 0 0 0 0 0 0 0 0 0 0 0 0 0 0 0 0 0 127 0" result="hardAlpha"/>
<feOffset dy="4"/>
<feGaussianBlur stdDeviation="2"/>
<feComposite in2="hardAlpha" operator="out"/>
<feColorMatrix type="matrix" values="0 0 0 0 0 0 0 0 0 0 0 0 0 0 0 0 0 0 0.25 0"/>
<feBlend mode="normal" in2="BackgroundImageFix" result="effect1_dropShadow_83_137"/>
<feBlend mode="normal" in="SourceGraphic" in2="effect1_dropShadow_83_137" result="shape"/>
</filter>
<linearGradient id="paint0_linear_83_137" x1="87.5" y1="14.2045" x2="14.2045" y2="88.0682" gradientUnits="userSpaceOnUse">
<stop stop-color="#BE3D55"/>
<stop offset="1" stop-color="#94192F"/>
</linearGradient>
</defs>
</svg>
