<svg width="100" height="100" viewBox="0 0 100 100" fill="none" xmlns="http://www.w3.org/2000/svg">
<g filter="url(#filter0_d_83_155)">
<path d="M50.0002 42.125C54.2918 42.125 57.7918 45.625 57.7918 50C57.7918 54.1667 54.2918 57.7083 50.0002 57.7083C45.7085 57.7083 42.2085 54.1667 42.2085 50C42.2085 45.625 45.7085 42.125 50.0002 42.125ZM30.7085 83.3333C33.3335 84.9167 39.0835 82.5 45.7085 76.25C43.5418 73.7917 41.4168 71.125 39.4168 68.3333C36.0594 68.0097 32.7214 67.509 29.4168 66.8333C27.2918 75.75 28.0835 81.875 30.7085 83.3333ZM33.6668 59.4167L32.4585 57.2917C32.0002 58.5 31.5418 59.7083 31.2502 60.875C32.3752 61.125 33.6252 61.3333 34.9168 61.5417L33.6668 59.4167ZM60.9168 56.25L64.2918 50L60.9168 43.75C59.6668 41.5417 58.3335 39.5833 57.1252 37.625C54.8752 37.5 52.5002 37.5 50.0002 37.5C47.5002 37.5 45.1252 37.5 42.8752 37.625C41.6668 39.5833 40.3335 41.5417 39.0835 43.75L35.7085 50L39.0835 56.25C40.3335 58.4583 41.6668 60.4167 42.8752 62.375C45.1252 62.5 47.5002 62.5 50.0002 62.5C52.5002 62.5 54.8752 62.5 57.1252 62.375C58.3335 60.4167 59.6668 58.4583 60.9168 56.25ZM50.0002 28.25C49.2085 29.1667 48.3752 30.125 47.5418 31.25H52.4585C51.6252 30.125 50.7918 29.1667 50.0002 28.25ZM50.0002 71.75C50.7918 70.8333 51.6252 69.875 52.4585 68.75H47.5418C48.3752 69.875 49.2085 70.8333 50.0002 71.75ZM69.2502 16.6667C66.6668 15.0833 60.9168 17.5 54.2918 23.75C56.4585 26.2083 58.5835 28.875 60.5835 31.6667C64.0002 32 67.3752 32.5 70.5835 33.1667C72.7085 24.25 71.9168 18.125 69.2502 16.6667ZM66.3335 40.5833L67.5418 42.7083C68.0002 41.5 68.4585 40.2917 68.7502 39.125C67.6252 38.875 66.3752 38.6667 65.0835 38.4583L66.3335 40.5833ZM72.3752 11.2083C78.5002 14.7083 79.1668 23.9167 76.5835 34.6667C87.1668 37.7917 94.7918 42.9583 94.7918 50C94.7918 57.0417 87.1668 62.2083 76.5835 65.3333C79.1668 76.0833 78.5002 85.2917 72.3752 88.7917C66.2918 92.2917 58.0002 88.2917 50.0002 80.6667C42.0002 88.2917 33.7085 92.2917 27.5835 88.7917C21.5002 85.2917 20.8335 76.0833 23.4168 65.3333C12.8335 62.2083 5.2085 57.0417 5.2085 50C5.2085 42.9583 12.8335 37.7917 23.4168 34.6667C20.8335 23.9167 21.5002 14.7083 27.5835 11.2083C33.7085 7.70832 42.0002 11.7083 50.0002 19.3333C58.0002 11.7083 66.2918 7.70832 72.3752 11.2083ZM71.1668 50C72.5835 53.125 73.8335 56.25 74.8752 59.4167C83.6252 56.7917 88.5418 53.0417 88.5418 50C88.5418 46.9583 83.6252 43.2083 74.8752 40.5833C73.8335 43.75 72.5835 46.875 71.1668 50ZM28.8335 50C27.4168 46.875 26.1668 43.75 25.1252 40.5833C16.3752 43.2083 11.4585 46.9583 11.4585 50C11.4585 53.0417 16.3752 56.7917 25.1252 59.4167C26.1668 56.25 27.4168 53.125 28.8335 50ZM66.3335 59.4167L65.0835 61.5417C66.3752 61.3333 67.6252 61.125 68.7502 60.875C68.4585 59.7083 68.0002 58.5 67.5418 57.2917L66.3335 59.4167ZM54.2918 76.25C60.9168 82.5 66.6668 84.9167 69.2502 83.3333C71.9168 81.875 72.7085 75.75 70.5835 66.8333C67.3752 67.5 64.0002 68 60.5835 68.3333C58.5835 71.125 56.4585 73.7917 54.2918 76.25ZM33.6668 40.5833L34.9168 38.4583C33.6252 38.6667 32.3752 38.875 31.2502 39.125C31.5418 40.2917 32.0002 41.5 32.4585 42.7083L33.6668 40.5833ZM45.7085 23.75C39.0835 17.5 33.3335 15.0833 30.7085 16.6667C28.0835 18.125 27.2918 24.25 29.4168 33.1667C32.7214 32.491 36.0594 31.9903 39.4168 31.6667C41.4168 28.875 43.5418 26.2083 45.7085 23.75Z" fill="url(#paint0_linear_83_155)"/>
</g>
<defs>
<filter id="filter0_d_83_155" x="-4" y="0" width="108" height="108" filterUnits="userSpaceOnUse" color-interpolation-filters="sRGB">
<feFlood flood-opacity="0" result="BackgroundImageFix"/>
<feColorMatrix in="SourceAlpha" type="matrix" values="0 0 0 0 0 0 0 0 0 0 0 0 0 0 0 0 0 0 127 0" result="hardAlpha"/>
<feOffset dy="4"/>
<feGaussianBlur stdDeviation="2"/>
<feComposite in2="hardAlpha" operator="out"/>
<feColorMatrix type="matrix" values="0 0 0 0 0 0 0 0 0 0 0 0 0 0 0 0 0 0 0.25 0"/>
<feBlend mode="normal" in2="BackgroundImageFix" result="effect1_dropShadow_83_155"/>
<feBlend mode="normal" in="SourceGraphic" in2="effect1_dropShadow_83_155" result="shape"/>
</filter>
<linearGradient id="paint0_linear_83_155" x1="88.393" y1="17.2147" x2="21.7324" y2="92.3061" gradientUnits="userSpaceOnUse">
<stop stop-color="#BE3D55"/>
<stop offset="1" stop-color="#94192F"/>
</linearGradient>
</defs>
</svg>
