<svg width="108" height="108" viewBox="0 0 108 108" fill="none" xmlns="http://www.w3.org/2000/svg">
<g clip-path="url(#clip0_135_73)" filter="url(#filter0_d_135_73)">
<mask id="mask0_135_73" style="mask-type:luminance" maskUnits="userSpaceOnUse" x="4" y="0" width="100" height="100">
<path d="M4 0H104V100H4V0Z" fill="white"/>
</mask>
<g mask="url(#mask0_135_73)">
<path d="M54 0C81.5 0 104 22.5 104 50C104 77.5 81.5 100 54 100C26.5 100 4 77.5 4 50C4 22.5 26.5 0 54 0ZM44 66.5625C44.625 69.375 44.625 71.875 44 74.0625L43.6875 75C43.6875 75.3125 43.375 75.625 43.375 75.625C42.75 76.875 42.125 77.8125 41.1875 79.0625C38.375 82.1875 34.3125 83.4375 32.4375 82.5C30.5625 81.5625 31.5 76.875 34.9375 73.4375C38.6875 69.6875 43.6875 67.1875 43.6875 67.1875L44 66.5625ZM85.25 21.25C83.0625 12.5 68.375 9.375 54.3125 14.375C46.1875 17.5 37.125 22.1875 30.5625 28.125C22.75 35.3125 21.8125 41.5625 22.125 44.0625C24 53.125 36.5 59.375 41.8125 63.75C40.25 64.375 29 70 26.5 75.9375C23.6875 82.1875 26.8125 86.5625 29 86.875C35.5625 88.75 42.4375 85.3125 45.875 80C49.3125 74.6875 49 68.125 47.4375 64.6875C49.8685 63.9368 52.4525 63.8291 54.9375 64.375C63.6875 65.3125 65.5625 70.9375 64.9375 73.125C64.3125 75.3125 62.75 76.5625 62.125 77.1875C61.5 77.5 61.1875 77.8125 61.5 77.8125C61.5 78.125 61.8125 78.125 62.4375 78.125C63.0625 78.125 67.125 76.25 67.125 71.875C67.4375 66.5625 62.125 60.625 53.0625 60.625C49.3125 60.625 46.8125 60.9375 45.25 61.5625C45.25 61.25 44.9375 61.25 44.9375 61.25C39.3125 55.3125 29 50.9375 29.3125 42.8125C29.3125 40 30.5625 32.1875 49.3125 22.8125C64.625 15 77.125 17.1875 79.3125 21.875C82.4375 28.4375 72.75 40.9375 56.8125 42.8125C50.5625 43.4375 47.4375 41.25 46.8125 40.3125C45.875 39.375 45.875 39.375 45.5625 39.375C44.9375 39.6875 45.25 40.3125 45.5625 40.9375C46.1875 42.1875 48.0625 44.375 51.5 45.625C54.3125 46.5625 61.5 47.1875 70.25 43.75C79.9375 40 87.4375 29.6875 85.25 20.9375V21.25Z" fill="url(#paint0_linear_135_73)"/>
</g>
<path d="M78.1922 93.384C77.7562 93.384 77.3909 93.2373 77.0962 92.944C76.8015 92.648 76.6542 92.282 76.6542 91.846V90H78.4242V91.616H83.6542V88.616H77.8842C77.5362 88.616 77.2442 88.498 77.0082 88.262C76.7722 88.026 76.6542 87.7333 76.6542 87.384V84.154C76.6542 83.718 76.8015 83.3527 77.0962 83.058C77.3909 82.7633 77.7562 82.616 78.1922 82.616H83.8842C84.3202 82.616 84.6862 82.7627 84.9822 83.056C85.2755 83.352 85.4222 83.718 85.4222 84.154V86H83.6542V84.384H78.4242V87.384H84.1922C84.5415 87.384 84.8342 87.502 85.0702 87.738C85.3062 87.974 85.4242 88.2667 85.4242 88.616V91.846C85.4242 92.282 85.2769 92.6473 84.9822 92.942C84.6862 93.2367 84.3202 93.384 83.8842 93.384H78.1922ZM91.0002 93.384C90.5642 93.384 90.1989 93.2373 89.9042 92.944C89.6095 92.648 89.4622 92.282 89.4622 91.846V90H91.2302V91.616H96.4622V88.616H90.6922C90.3442 88.616 90.0522 88.498 89.8162 88.262C89.5802 88.026 89.4622 87.7333 89.4622 87.384V84.154C89.4622 83.718 89.6095 83.3527 89.9042 83.058C90.1989 82.7633 90.5642 82.616 91.0002 82.616H96.6922C97.1282 82.616 97.4935 82.7627 97.7882 83.056C98.0842 83.352 98.2322 83.718 98.2322 84.154V86H96.4622V84.384H91.2302V87.384H97.0002C97.3495 87.384 97.6422 87.502 97.8782 87.738C98.1142 87.974 98.2322 88.2667 98.2322 88.616V91.846C98.2322 92.282 98.0842 92.6473 97.7882 92.942C97.4935 93.2367 97.1282 93.384 96.6922 93.384H91.0002ZM65.3842 93.384C64.9495 93.384 64.5842 93.2373 64.2882 92.944C63.9935 92.648 63.8462 92.282 63.8462 91.846V84.154C63.8462 83.718 63.9935 83.3527 64.2882 83.058C64.5842 82.7633 64.9495 82.616 65.3842 82.616H71.0802C71.5162 82.616 71.8815 82.7627 72.1762 83.056C72.4695 83.352 72.6162 83.718 72.6162 84.154V86H70.8482V84.384H65.6162V91.616H70.8462V90H72.6162V91.846C72.6162 92.282 72.4689 92.6473 72.1742 92.942C71.8795 93.2367 71.5142 93.384 71.0782 93.384H65.3842Z" fill="#F8F8F8"/>
</g>
<defs>
<filter id="filter0_d_135_73" x="0" y="0" width="108" height="108" filterUnits="userSpaceOnUse" color-interpolation-filters="sRGB">
<feFlood flood-opacity="0" result="BackgroundImageFix"/>
<feColorMatrix in="SourceAlpha" type="matrix" values="0 0 0 0 0 0 0 0 0 0 0 0 0 0 0 0 0 0 127 0" result="hardAlpha"/>
<feOffset dy="4"/>
<feGaussianBlur stdDeviation="2"/>
<feComposite in2="hardAlpha" operator="out"/>
<feColorMatrix type="matrix" values="0 0 0 0 0 0 0 0 0 0 0 0 0 0 0 0 0 0 0.25 0"/>
<feBlend mode="normal" in2="BackgroundImageFix" result="effect1_dropShadow_135_73"/>
<feBlend mode="normal" in="SourceGraphic" in2="effect1_dropShadow_135_73" result="shape"/>
</filter>
<linearGradient id="paint0_linear_135_73" x1="96.8571" y1="9.09091" x2="13.0909" y2="93.5065" gradientUnits="userSpaceOnUse">
<stop stop-color="#BE3D55"/>
<stop offset="1" stop-color="#94192F"/>
</linearGradient>
<clipPath id="clip0_135_73">
<rect width="100" height="100" fill="white" transform="translate(4)"/>
</clipPath>
</defs>
</svg>
